<?xml version="1.0" encoding="iso-8859-1"?>
<!-- Generator: Adobe Illustrator 20.1.0, SVG Export Plug-In . SVG Version: 6.00 Build 0)  -->
<svg xmlns="http://www.w3.org/2000/svg" xmlns:xlink="http://www.w3.org/1999/xlink" version="1.1" id="&#1057;&#1083;&#1086;&#1081;_1" x="0px" y="0px" viewBox="0 0 64 64" style="enable-background:new 0 0 64 64;" xml:space="preserve">
<linearGradient id="SVGID_1__43995" gradientUnits="userSpaceOnUse" x1="17" y1="46.25" x2="17" y2="55.0036" spreadMethod="reflect">
	<stop offset="0" style="stop-color:#6DC7FF"/>
	<stop offset="1" style="stop-color:#E6ABFF"/>
</linearGradient>
<path style="fill:url(#SVGID_1__43995);" d="M13,46v6c0,1.105,0.895,2,2,2h6L13,46z"/>
<linearGradient id="SVGID_2__43995" gradientUnits="userSpaceOnUse" x1="32" y1="5.3333" x2="32" y2="58.3428" spreadMethod="reflect">
	<stop offset="0" style="stop-color:#1A6DFF"/>
	<stop offset="1" style="stop-color:#C822FF"/>
</linearGradient>
<path style="fill:url(#SVGID_2__43995);" d="M52,37V12c0-1.302-0.839-2.402-2-2.816V9c0-1.654-1.346-3-3-3H17c-1.654,0-3,1.346-3,3v0.184  c-1.161,0.414-2,1.514-2,2.816v12c-1.654,0-3,1.346-3,3v26c0,2.757,2.243,5,5,5h37v0c0.071,0,0.142-0.002,0.214-0.005  C53.337,57.884,55,56.054,55,53.83V40C55,38.346,53.654,37,52,37z M44,11h5c0.552,0,1,0.448,1,1v6h-5c-0.552,0-1-0.448-1-1V11z   M17,8h30c0.552,0,1,0.448,1,1H16C16,8.448,16.448,8,17,8z M11,53V27c0-0.552,0.448-1,1-1h7.93c0.335,0,0.646,0.166,0.832,0.445  l2.812,4.216C24.131,31.5,25.065,32,26.073,32H46c0.552,0,1,0.448,1,1v21c0,0.709,0.209,1.394,0.56,2H14C12.346,56,11,54.654,11,53z   M53,53.83c0,1.141-0.849,2.112-1.891,2.167c-0.552,0.025-1.084-0.165-1.486-0.547C49.222,55.068,49,54.554,49,54V33  c0-1.654-1.346-3-3-3H26.073c-0.337,0-0.649-0.167-0.836-0.447l-2.812-4.217C21.868,24.499,20.935,24,19.93,24H14V12  c0-0.552,0.448-1,1-1h27v6c0,1.654,1.346,3,3,3h5v34c0,0.553,0.447,1,1,1s1-0.447,1-1V39c0.552,0,1,0.448,1,1V53.83z"/>
<linearGradient id="SVGID_3__43995" gradientUnits="userSpaceOnUse" x1="28" y1="5.3333" x2="28" y2="58.3428" spreadMethod="reflect">
	<stop offset="0" style="stop-color:#1A6DFF"/>
	<stop offset="1" style="stop-color:#C822FF"/>
</linearGradient>
<rect x="18" y="14" style="fill:url(#SVGID_3__43995);" width="20" height="2"/>
<linearGradient id="SVGID_4__43995" gradientUnits="userSpaceOnUse" x1="28" y1="5.3333" x2="28" y2="58.3428" spreadMethod="reflect">
	<stop offset="0" style="stop-color:#1A6DFF"/>
	<stop offset="1" style="stop-color:#C822FF"/>
</linearGradient>
<rect x="18" y="18" style="fill:url(#SVGID_4__43995);" width="20" height="2"/>
<linearGradient id="SVGID_5__43995" gradientUnits="userSpaceOnUse" x1="32" y1="5.3333" x2="32" y2="58.3428" spreadMethod="reflect">
	<stop offset="0" style="stop-color:#1A6DFF"/>
	<stop offset="1" style="stop-color:#C822FF"/>
</linearGradient>
<rect x="26" y="22" style="fill:url(#SVGID_5__43995);" width="12" height="2"/>
<linearGradient id="SVGID_6__43995" gradientUnits="userSpaceOnUse" x1="32" y1="5.3333" x2="32" y2="58.3428" spreadMethod="reflect">
	<stop offset="0" style="stop-color:#1A6DFF"/>
	<stop offset="1" style="stop-color:#C822FF"/>
</linearGradient>
<rect x="26" y="26" style="fill:url(#SVGID_6__43995);" width="12" height="2"/>
</svg>
